<?xml version="1.0" standalone="no"?>
<!DOCTYPE svg PUBLIC "-//W3C//DTD SVG 1.1//EN" "http://www.w3.org/Graphics/SVG/1.1/DTD/svg11.dtd">
<svg version="1.1" xmlns="http://www.w3.org/2000/svg" viewBox="0 0 720 720" width="2160" height="2160"><!-- svg-source:excalidraw --><metadata></metadata><defs><style class="style-fonts">
      </style></defs><rect x="0" y="0" width="720" height="720" fill="#ffffff"></rect><g stroke-linecap="round" transform="translate(10 10) rotate(0 350 350)"><path d="M0 0 L700 0 L700 700 L0 700" stroke="none" stroke-width="0" fill="#fff9db"></path><path d="M0 0 C275.9 0, 551.8 0, 700 0 M0 0 C222.42 0, 444.84 0, 700 0 M700 0 C700 180.42, 700 360.85, 700 700 M700 0 C700 145.76, 700 291.52, 700 700 M700 700 C553.2 700, 406.4 700, 0 700 M700 700 C514.8 700, 329.59 700, 0 700 M0 700 C0 512.2, 0 324.4, 0 0 M0 700 C0 432.63, 0 165.26, 0 0" stroke="transparent" stroke-width="1" fill="none"></path></g><g stroke-linecap="round"><g transform="translate(510 50) rotate(270 75 75)" fill-rule="evenodd"><path d="M0 0 L0 150 L150 0 L0 0" stroke="none" stroke-width="0" fill="#343a40" fill-rule="evenodd"></path><path d="M0 0 C0 41.15, 0 82.29, 0 150 M0 0 C0 30.62, 0 61.24, 0 150 M0 150 C30.72 119.28, 61.45 88.55, 150 0 M0 150 C38.2 111.8, 76.4 73.6, 150 0 M150 0 C99.06 0, 48.12 0, 0 0 M150 0 C107 0, 64 0, 0 0 M0 0 C0 0, 0 0, 0 0 M0 0 C0 0, 0 0, 0 0" stroke="#1e1e1e" stroke-width="1" fill="none"></path></g></g><mask></mask></svg>